HIERARCHY
ROOT SimulationBone
{
	OFFSET 0.000000 0.000000 0.000000
	CHANNELS 6 Xposition Yposition Zposition Zrotation Yrotation Xrotation 
	JOINT Hips
	{
		OFFSET 0.000000 0.000000 0.000000
		CHANNELS 6 Xposition Yposition Zposition Zrotation Yrotation Xrotation 
		JOINT RightUpLeg
		{
			OFFSET 0.103457 1.857824 10.548509
			CHANNELS 3 Zrotation Yrotation Xrotation
			JOINT RightLeg
			{
				OFFSET 43.500000 -0.000023 0.000006
				CHANNELS 3 Zrotation Yrotation Xrotation
				JOINT RightFoot
				{
					OFFSET 42.372192 0.000011 -0.000009
					CHANNELS 3 Zrotation Yrotation Xrotation
					JOINT RightToe
					{
						OFFSET 17.300005 0.000002 -0.000010
						CHANNELS 3 Zrotation Yrotation Xrotation
						End Site
						{
							OFFSET 0.000000 0.000000 0.000000
						}
					}
				}
			}
		}
		JOINT LeftUpLeg
		{
			OFFSET 0.103458 1.857836 -10.548506
			CHANNELS 3 Zrotation Yrotation Xrotation
			JOINT LeftLeg
			{
				OFFSET 43.500038 -0.000023 0.000017
				CHANNELS 3 Zrotation Yrotation Xrotation
				JOINT LeftFoot
				{
					OFFSET 42.372269 -0.000019 0.000007
					CHANNELS 3 Zrotation Yrotation Xrotation
					JOINT LeftToe
					{
						OFFSET 17.299999 -0.000003 0.000008
						CHANNELS 3 Zrotation Yrotation Xrotation
						End Site
						{
							OFFSET 0.000000 0.000000 0.000000
						}
					}
				}
			}
		}
		JOINT Spine
		{
			OFFSET 6.901969 -2.603729 0.000003
			CHANNELS 3 Zrotation Yrotation Xrotation
			JOINT Spine1
			{
				OFFSET 12.588093 -0.000007 0.000001
				CHANNELS 3 Zrotation Yrotation Xrotation
				JOINT Spine2
				{
					OFFSET 12.343206 0.000014 -0.000007
					CHANNELS 3 Zrotation Yrotation Xrotation
					JOINT Neck
					{
						OFFSET 25.832899 -0.000010 0.000002
						CHANNELS 3 Zrotation Yrotation Xrotation
						JOINT Head
						{
							OFFSET 11.766599 0.000010 -0.000001
							CHANNELS 3 Zrotation Yrotation Xrotation
							End Site
							{
								OFFSET 0.000000 0.000000 0.000000
							}
						}
					}
					JOINT RightShoulder
					{
						OFFSET 19.745895 -1.480371 6.000111
						CHANNELS 3 Zrotation Yrotation Xrotation
						JOINT RightArm
						{
							OFFSET 11.284124 -0.000010 -0.000007
							CHANNELS 3 Zrotation Yrotation Xrotation
							JOINT RightForeArm
							{
								OFFSET 33.000061 0.000006 0.000028
								CHANNELS 3 Zrotation Yrotation Xrotation
								JOINT RightHand
								{
									OFFSET 25.200001 0.000019 0.000008
									CHANNELS 3 Zrotation Yrotation Xrotation
									End Site
									{
										OFFSET 0.000000 0.000000 0.000000
									}
								}
							}
						}
					}
					JOINT LeftShoulder
					{
						OFFSET 19.746101 -1.480375 -6.000078
						CHANNELS 3 Zrotation Yrotation Xrotation
						JOINT LeftArm
						{
							OFFSET 11.284128 -0.000010 -0.000011
							CHANNELS 3 Zrotation Yrotation Xrotation
							JOINT LeftForeArm
							{
								OFFSET 33.000095 0.000022 0.000002
								CHANNELS 3 Zrotation Yrotation Xrotation
								JOINT LeftHand
								{
									OFFSET 25.199768 0.000129 0.000422
									CHANNELS 3 Zrotation Yrotation Xrotation
									End Site
									{
										OFFSET 0.000000 0.000000 0.000000
									}
								}
							}
						}
					}
				}
			}
		}
	}
}
MOTION
Frames: 11
Frame Time: 0.016667
35.030277 0.000000 -480.726993 0.000000 21.118827 0.000000 -3.287037 90.428017 -0.799978 87.038433 -3.220895 -177.757929 166.855101 8.891399 -176.435698 -28.144062 0.916548 -2.185847 89.008197 1.677700 1.069269 21.454558 0.003111 0.000017 146.326611 10.174393 176.820251 -39.218283 -3.010059 2.055955 69.791705 0.767064 6.353656 21.454555 -0.003099 0.000001 7.239715 -1.303841 -0.101666 4.470588 -2.602768 -0.253238 4.152156 -2.604382 -0.237510 3.595424 -2.538603 23.447729 -28.951525 -12.154894 29.968653 176.828270 -74.009501 1.877506 -17.491953 57.334580 14.512517 -49.249659 -13.455760 1.653571 0.553584 -9.139320 14.367755 -171.109310 83.417172 10.565026 -19.710376 -69.006409 -35.476516 -37.668093 20.286133 -1.741722 12.967911 13.848593 15.136859 
36.296353 0.000000 -480.799320 0.000000 24.200397 0.000000 -3.212206 90.382744 -0.721014 87.004492 -3.344096 -178.744961 167.549670 8.548731 -175.414412 -28.087869 0.723576 -1.515263 89.786425 1.212880 1.051577 21.454558 0.003102 0.000017 147.684253 10.622455 175.430576 -33.133509 -2.808064 -1.355138 70.437892 3.127518 5.978351 21.454554 -0.003097 0.000001 7.212692 -1.337896 -0.092585 4.416502 -2.671264 -0.235765 4.098022 -2.672777 -0.219617 2.853199 -2.943359 23.141637 -28.740757 -12.212017 29.512174 176.576485 -74.128809 2.132692 -17.901093 56.787175 13.905178 -46.919155 -13.497874 1.585854 1.282959 -9.406662 12.047264 -171.196409 83.487678 10.477237 -19.007076 -69.037738 -36.391201 -35.559063 18.618070 -1.577392 15.118566 13.401873 22.407901 
37.533720 0.000000 -480.862128 0.000000 27.258980 0.000000 -3.114165 90.285454 -0.712547 86.903266 -3.562115 -179.580577 168.206823 8.277097 -174.478111 -27.947953 0.529513 -0.796642 90.659989 0.729404 1.118927 21.454558 0.003102 0.000017 149.351019 11.531796 171.971309 -26.317570 -1.356637 -3.471317 68.516980 4.715651 6.108106 21.454555 -0.003097 0.000000 7.174133 -1.384034 -0.089619 4.339484 -2.763710 -0.230652 4.020969 -2.765191 -0.213946 2.330028 -3.561405 22.886719 -28.765535 -12.192672 29.081677 176.620045 -74.075201 2.089396 -17.921702 55.955725 13.556246 -45.157825 -13.401069 1.524664 2.300800 -9.396334 9.929633 -171.617586 83.567867 10.052048 -17.310994 -68.996840 -38.162840 -34.022312 17.218499 -1.456233 16.568162 12.748596 26.739105 
38.741809 0.000000 -480.916843 0.000000 30.281931 0.000000 -3.031298 90.168568 -0.719045 86.769424 -3.738383 179.728627 168.713008 7.924927 -173.701274 -27.905252 0.400789 0.055955 91.566664 0.153913 1.192911 21.454557 0.003106 0.000017 150.949184 12.570514 168.018906 -20.334815 0.411983 -4.254700 65.771400 5.703950 6.882205 21.454555 -0.003096 -0.000001 7.130663 -1.417455 -0.080828 4.252417 -2.830954 -0.213234 3.933885 -2.832327 -0.196125 2.017313 -4.294282 22.645877 -28.877713 -12.120646 28.643732 176.870172 -73.944697 1.836188 -17.750577 54.996806 13.224412 -43.856627 -13.221363 1.474347 3.396970 -9.180668 8.205708 -171.999278 83.652740 9.666921 -14.909562 -68.896442 -40.654034 -32.927820 16.093869 -1.361483 17.343242 12.177489 28.562616 
39.920051 0.000000 -480.964893 0.000000 33.257722 0.000000 -3.012929 90.064507 -0.694691 86.619549 -3.732317 179.174403 168.951628 7.344188 -173.159721 -28.138729 0.409435 1.129300 92.445640 -0.584512 1.193961 21.454558 0.003107 0.000017 152.177925 13.277296 165.160449 -16.736667 1.547033 -3.920780 63.944776 6.273931 8.535579 21.454553 -0.003093 -0.000000 7.088904 -1.413345 -0.054319 4.168178 -2.823779 -0.159025 3.849656 -2.824824 -0.141961 1.906566 -5.044289 22.379513 -28.928855 -12.017551 28.164836 177.236620 -73.832900 1.463106 -17.569452 54.065600 12.683298 -42.905478 -13.014394 1.434557 4.371362 -8.853077 7.062976 -171.947334 83.738212 9.719907 -12.089125 -68.749935 -43.728532 -32.150980 15.249961 -1.289008 17.473943 11.874366 28.314079 
41.067876 0.000000 -481.007703 0.000000 36.176191 0.000000 -3.095650 89.987264 -0.611838 86.461350 -3.462100 178.758278 168.822630 6.462052 -172.856431 -28.833129 0.594605 2.441138 93.249918 -1.505034 1.062022 21.454559 0.003102 0.000017 152.900038 13.335330 164.864025 -16.515007 1.509243 -3.046588 64.317370 6.554939 10.889731 21.454547 -0.003087 0.000002 7.056409 -1.358532 -0.004717 4.101789 -2.715993 -0.057084 3.783306 -2.716427 -0.040670 1.978128 -5.729046 22.056071 -28.802722 -11.883536 27.612844 177.652032 -73.814246 1.037456 -17.501357 53.269039 11.786341 -42.211227 -12.813226 1.402367 5.062120 -8.533812 6.610159 -171.136009 83.807150 10.539713 -9.107848 -68.561396 -47.217900 -31.590677 14.663508 -1.239453 17.014984 11.896726 26.520968 
42.184716 0.000000 -481.046701 0.000000 39.028700 0.000000 -3.232768 89.877113 -0.475255 86.331178 -3.087031 178.527415 168.288853 5.503798 -172.510730 -30.211114 0.836085 3.737425 93.979461 -2.428329 0.819529 21.454560 0.003097 0.000017 153.338210 13.336108 168.149490 -18.272394 0.915381 -3.067613 66.333526 6.783217 12.023581 21.454545 -0.003082 0.000003 7.044288 -1.286486 0.047441 4.076177 -2.573779 0.050033 3.757742 -2.573570 0.065588 2.166419 -6.327009 21.680195 -28.512924 -11.640597 26.959763 178.109026 -73.877788 0.567210 -17.495612 52.523648 10.643410 -41.749435 -12.561783 1.372897 5.424190 -8.398825 6.662821 -169.617391 83.790591 12.073477 -6.159928 -68.279902 -50.775638 -31.227866 14.195015 -1.202152 16.230691 12.050103 24.148315 
43.270001 0.000000 -481.083312 0.000000 41.808221 0.000000 -3.371799 89.685286 -0.289731 86.263674 -2.727438 178.502891 167.305779 4.660763 -171.885730 -32.461397 1.011316 4.786402 94.594671 -3.186212 0.524387 21.454558 0.003100 0.000017 153.791253 13.779232 175.067195 -20.293802 0.349158 -4.926565 69.005764 7.259681 10.463770 21.454550 -0.003084 0.000002 7.058610 -1.219874 0.086673 4.103876 -2.441975 0.130511 3.785484 -2.441280 0.145264 2.390630 -6.830356 21.265705 -28.108275 -11.259883 26.210708 178.583655 -73.970883 0.078255 -17.460684 51.734726 9.433306 -41.522512 -12.237434 1.345420 5.470258 -8.592547 6.934659 -167.641868 83.636318 14.069064 -3.444666 -67.872101 -54.010385 -31.038154 13.707639 -1.167127 15.432028 12.110128 22.167077 
44.323163 0.000000 -481.118965 0.000000 44.509328 0.000000 -3.524986 89.480568 -0.072959 86.168792 -2.127799 178.553773 165.759771 3.674696 -171.190045 -35.569548 1.157269 5.708252 94.859305 -3.850281 0.279424 21.454557 0.003107 0.000017 154.289710 13.850204 -178.019728 -22.149050 -0.341229 -6.781750 71.454522 7.599677 8.247966 21.454557 -0.003091 0.000000 7.082197 -1.091399 0.143411 4.149897 -2.187136 0.248040 3.831568 -2.185735 0.261247 2.556998 -7.223925 20.821227 -27.636570 -10.987835 25.491938 178.929031 -73.960269 -0.275795 -17.304065 50.950280 8.368904 -41.570371 -12.040752 1.333774 5.346514 -9.115110 7.021735 -165.503322 83.414727 16.230692 -1.164201 -67.379840 -56.610795 -30.890431 13.192138 -1.130742 14.853553 11.874991 21.118146 
45.343630 0.000000 -481.155085 0.000000 47.128143 0.000000 -3.704507 89.341719 0.153474 85.936824 -1.070886 178.555065 163.591372 2.289805 -170.676714 -39.406022 1.344076 6.668306 94.502262 -4.527668 0.193827 21.454556 0.003112 0.000017 154.654083 12.825114 -174.614046 -23.754074 -1.197506 -6.709051 73.105184 7.193572 7.562971 21.454556 -0.003098 -0.000001 7.095789 -0.840720 0.244399 4.175787 -1.689564 0.458670 3.857552 -1.686905 0.468870 2.624397 -7.508186 20.354603 -27.132995 -11.036231 24.907004 178.972813 -73.761642 -0.316440 -16.947162 50.282989 7.594864 -41.909121 -12.149048 1.349918 5.202152 -9.939658 6.568582 -163.463229 83.236595 18.293885 0.578272 -66.876109 -58.428784 -30.642732 12.671518 -1.092392 14.612909 11.239887 21.214544 
46.330836 0.000000 -481.193099 0.000000 49.662215 0.000000 -3.870520 89.269852 0.386130 85.618558 0.172672 178.568755 161.022147 0.734106 -170.412810 -43.588825 1.575575 7.675148 93.312117 -5.216902 0.351196 21.454557 0.003114 0.000017 155.063900 11.346896 -173.735642 -24.981658 -1.650632 -5.310546 74.266893 6.201064 7.858149 21.454553 -0.003098 0.000000 7.093845 -0.525307 0.355703 4.171806 -1.062901 0.692466 3.853660 -1.058846 0.698878 2.777338 -7.748319 19.871804 -26.616459 -11.192919 24.371117 178.601141 -73.563305 0.069303 -16.320121 49.958946 6.990171 -42.422451 -12.423732 1.382259 5.041757 -11.064317 5.533920 -161.996006 83.246704 19.776982 1.928391 -66.453045 -59.741511 -30.215154 12.170594 -1.051516 14.457511 10.450674 21.785682 
